<?xml version="1.0" encoding="UTF-8"?>
<svg id="Layer_1" data-name="Layer 1" xmlns="http://www.w3.org/2000/svg" viewBox="0 0 1080 412">
  <defs>
    <style>
      .cls-1 {
        fill: #f9f5f4;
      }
    </style>
  </defs>
  <g>
    <path class="cls-1" d="M205.6.4C92.04.4,0,92.45,0,206.02s92.04,205.57,205.6,205.57,205.57-92.04,205.57-205.57S319.13.4,205.6.4ZM205.6,392.58c-103.05,0-186.58-83.54-186.58-186.56S102.55,19.42,205.6,19.42s186.58,83.54,186.58,186.61-83.54,186.56-186.58,186.56Z"/>
    <g>
      <path class="cls-1" d="M63.54,135.93h42.84c25.84,0,36.08,13.36,36.08,34.86v3.47c0,15.78-6.59,23.76-17,27.93,11.45,4.16,19.08,13.7,19.08,31.05v3.47c0,26.36-10.06,39.37-36.94,39.37h-44.06v-140.14ZM103.78,193.17c8.5,0,13.7-2.6,13.7-13.87v-9.37c0-11.1-4.33-13.36-13.53-13.36h-15.96v36.6h15.78ZM104.64,255.43c11.45,0,14.74-3.29,14.74-15.09v-11.27c0-11.1-4.34-15.26-14.74-15.26h-16.65v41.62h16.65Z"/>
      <path class="cls-1" d="M150.94,254.22h9.02v-96.43h-9.02v-21.85h42.32v21.85h-8.85v96.43h8.85v21.85h-42.32v-21.85Z"/>
      <path class="cls-1" d="M201.83,135.93h65.74v20.64h-41.28v39.2h38.85v20.46h-38.85v39.2h41.28v20.64h-65.74v-140.14Z"/>
      <path class="cls-1" d="M270.58,235.14v-7.98h24.8v14.4c0,12.14,5.21,16.3,16.65,16.3,10.41,0,14.74-3.82,14.74-13.87v-6.07c0-10.93-4.34-15.26-13.7-19.77l-17.87-10.23c-14.22-8.33-23.41-18.39-23.41-37.12,0-23.07,13.18-36.6,39.2-36.6s39.37,13.01,39.37,36.94v8.67h-24.8v-10.93c0-11.27-4.68-14.74-14.74-14.74-9.54,0-14.05,3.47-14.05,12.66v4.16c0,9.54,4.68,14.05,12.66,18.04l17.86,10.06c14.74,8.32,24.46,17.17,24.46,39.54,0,26.19-12.49,39.2-40.06,39.2s-41.11-14.57-41.11-42.67Z"/>
    </g>
  </g>
  <g>
    <g>
      <path class="cls-1" d="M492.24,78.54h42.83c25.84,0,36.07,13.35,36.07,34.86v3.47c0,15.78-6.59,23.76-16.99,27.92,11.45,4.16,19.08,13.7,19.08,31.04v3.47c0,26.36-10.06,39.36-36.94,39.36h-44.05V78.54ZM532.47,135.77c8.5,0,13.7-2.6,13.7-13.87v-9.37c0-11.1-4.34-13.35-13.53-13.35h-15.95v36.59h15.78ZM533.34,198.02c11.45,0,14.74-3.29,14.74-15.09v-11.27c0-11.1-4.34-15.26-14.74-15.26h-16.65v41.62h16.65Z"/>
      <path class="cls-1" d="M584.34,176.87v-98.33h24.8v103.88c0,13.35,5.03,17.86,15.61,17.86s15.61-4.51,15.61-17.86v-103.88h24.8v98.33c0,30.17-12.66,43.52-40.41,43.52s-40.41-13.35-40.41-43.52Z"/>
      <path class="cls-1" d="M677.16,196.81h9.02v-96.42h-9.02v-21.85h42.31v21.85h-8.84v96.42h8.84v21.85h-42.31v-21.85Z"/>
      <path class="cls-1" d="M731.52,78.54h24.45v119.48h41.62v20.64h-66.07V78.54Z"/>
      <path class="cls-1" d="M807.83,78.54h37.63c30.87,0,43.87,11.27,43.87,44.39v51.33c0,32.78-13.01,44.39-43.87,44.39h-37.63V78.54ZM845.8,199.59c13.53,0,18.56-5.2,18.56-21.33v-59.31c0-16.13-5.2-21.33-18.73-21.33h-13.35v101.97h13.53Z"/>
      <path class="cls-1" d="M943.61,196.81h9.02v-96.42h-9.02v-21.85h42.31v21.85h-8.84v96.42h8.84v21.85h-42.31v-21.85Z"/>
      <path class="cls-1" d="M997.98,78.54h22.37l36.24,86.36v-86.36h22.37v140.12h-22.54l-36.07-86.36v86.36h-22.37V78.54Z"/>
    </g>
    <g>
      <path class="cls-1" d="M492.22,256.65h35.59v11.17h-22.35v21.22h21.03v11.08h-21.03v21.22h22.35v11.17h-35.59v-75.87Z"/>
      <path class="cls-1" d="M545.17,256.65h13.24v64.69h22.53v11.17h-35.77v-75.87Z"/>
      <path class="cls-1" d="M627.6,310.36v-4.32h13.43v7.79c0,6.57,2.82,8.83,9.02,8.83,5.63,0,7.98-2.07,7.98-7.51v-3.29c0-5.92-2.35-8.26-7.42-10.71l-9.67-5.54c-7.7-4.51-12.68-9.96-12.68-20.09,0-12.49,7.14-19.81,21.22-19.81s21.32,7.04,21.32,20v4.7h-13.43v-5.92c0-6.1-2.54-7.98-7.98-7.98-5.17,0-7.61,1.88-7.61,6.86v2.25c0,5.17,2.54,7.61,6.86,9.77l9.67,5.44c7.98,4.51,13.24,9.29,13.24,21.41,0,14.18-6.76,21.22-21.69,21.22s-22.25-7.89-22.25-23.1Z"/>
      <path class="cls-1" d="M699.83,256.65h18.21l14.46,75.87h-13.62l-2.06-13.14h-15.87l-2.07,13.14h-13.52l14.46-75.87ZM715.13,308.2l-5.92-37.56-.28-1.5-.38,1.5-5.92,37.56h12.49Z"/>
      <path class="cls-1" d="M748.78,256.65h13.24v64.69h22.53v11.17h-35.77v-75.87Z"/>
      <path class="cls-1" d="M792.97,256.65h13.52l9.67,61.88.38,1.6.38-1.6,9.58-61.88h13.62l-14.46,75.87h-18.21l-14.46-75.87Z"/>
      <path class="cls-1" d="M862.12,256.65h18.22l14.46,75.87h-13.62l-2.06-13.14h-15.87l-2.07,13.14h-13.52l14.46-75.87ZM877.43,308.2l-5.92-37.56-.28-1.5-.38,1.5-5.92,37.56h12.49Z"/>
      <path class="cls-1" d="M911.07,256.65h20.38c16.71,0,23.76,6.11,23.76,24.04v27.79c0,17.75-7.04,24.04-23.76,24.04h-20.38v-75.87ZM931.64,322.19c7.32,0,10.05-2.82,10.05-11.55v-32.11c0-8.73-2.82-11.55-10.14-11.55h-7.23v55.21h7.32Z"/>
      <path class="cls-1" d="M972.21,307.92v-26.67c0-16.05,7.7-25.54,22.91-25.54s22.82,9.48,22.82,25.54v26.67c0,16.06-7.7,25.54-22.82,25.54s-22.91-9.48-22.91-25.54ZM995.12,322.47c6.38,0,9.29-4.04,9.29-11.08v-33.61c0-6.95-2.91-11.08-9.29-11.08s-9.39,4.04-9.39,11.08v33.61c0,7.04,2.91,11.08,9.39,11.08Z"/>
      <path class="cls-1" d="M1065.54,325.76v-15.4c0-6.2-3.57-7.98-7.7-7.98h-8.92v30.14h-13.24v-75.87h22.16c15.02,0,21.22,5.07,21.22,20.28v.94c0,11.46-2.91,16.24-10.23,18.87,7.51,2.53,10.14,8.26,10.14,15.3v13.71c0,2.72.19,5.16,1.03,6.76h-13.43c-.94-1.13-1.03-4.04-1.03-6.76ZM1057.84,291.96c5.82,0,7.7-3,7.7-8.45v-8.35c0-6.29-2.16-8.17-7.89-8.17h-8.73v24.97h8.92Z"/>
    </g>
  </g>
</svg>