<?xml version="1.0" encoding="UTF-8"?>
<svg id="Layer_1" data-name="Layer 1" xmlns="http://www.w3.org/2000/svg" viewBox="0 0 856 1080">
  <defs>
    <style>
      .cls-1 {
        fill: #f9f5f4;
      }
    </style>
  </defs>
  <g>
    <path class="cls-1" d="M427.28,0C262,0,128.02,133.98,128.02,299.29s133.98,299.23,299.26,299.23,299.23-133.98,299.23-299.23S592.53,0,427.28,0ZM427.28,570.84c-149.99,0-271.59-121.6-271.59-271.55S277.29,27.67,427.28,27.67s271.59,121.6,271.59,271.62-121.6,271.55-271.59,271.55Z"/>
    <g>
      <path class="cls-1" d="M220.5,197.27h62.36c37.62,0,52.51,19.44,52.51,50.75v5.05c0,22.97-9.59,34.59-24.74,40.65,16.66,6.06,27.77,19.94,27.77,45.19v5.05c0,38.37-14.64,57.31-53.77,57.31h-64.13v-203.99ZM279.07,280.58c12.37,0,19.94-3.79,19.94-20.2v-13.63c0-16.16-6.31-19.44-19.69-19.44h-23.23v53.27h22.97ZM280.34,371.21c16.66,0,21.46-4.79,21.46-21.96v-16.41c0-16.16-6.31-22.21-21.46-22.21h-24.24v60.59h24.24Z"/>
      <path class="cls-1" d="M347.73,369.44h13.13v-140.37h-13.13v-31.81h61.6v31.81h-12.88v140.37h12.88v31.81h-61.6v-31.81Z"/>
      <path class="cls-1" d="M421.79,197.27h95.68v30.04h-60.09v57.06h56.55v29.79h-56.55v57.06h60.09v30.04h-95.68v-203.99Z"/>
      <path class="cls-1" d="M521.87,341.67v-11.62h36.1v20.96c0,17.67,7.58,23.73,24.24,23.73,15.15,0,21.46-5.55,21.46-20.2v-8.84c0-15.91-6.31-22.21-19.94-28.78l-26.01-14.89c-20.7-12.12-34.08-26.76-34.08-54.03,0-33.58,19.19-53.27,57.06-53.27s57.31,18.94,57.31,53.77v12.62h-36.1v-15.91c0-16.41-6.82-21.46-21.46-21.46-13.89,0-20.45,5.05-20.45,18.43v6.06c0,13.89,6.81,20.45,18.43,26.25l26,14.65c21.46,12.11,35.6,24.99,35.6,57.56,0,38.12-18.18,57.05-58.32,57.05s-59.84-21.2-59.84-62.1Z"/>
    </g>
  </g>
  <g>
    <g>
      <path class="cls-1" d="M.26,708.95h62.35c37.61,0,52.5,19.44,52.5,50.74v5.05c0,22.97-9.59,34.58-24.74,40.64,16.66,6.06,27.77,19.94,27.77,45.18v5.05c0,38.37-14.64,57.3-53.76,57.3H.26v-203.95ZM58.82,792.25c12.37,0,19.94-3.79,19.94-20.19v-13.63c0-16.15-6.31-19.43-19.69-19.43h-23.22v53.26h22.97ZM60.08,882.87c16.66,0,21.45-4.79,21.45-21.96v-16.41c0-16.15-6.31-22.21-21.45-22.21h-24.23v60.58h24.23Z"/>
      <path class="cls-1" d="M134.32,852.07v-143.12h36.09v151.2c0,19.43,7.32,26,22.72,26s22.72-6.57,22.72-26v-151.2h36.1v143.12c0,43.92-18.43,63.35-58.81,63.35s-58.81-19.43-58.81-63.35Z"/>
      <path class="cls-1" d="M269.41,881.1h13.13v-140.34h-13.13v-31.81h61.59v31.81h-12.87v140.34h12.87v31.8h-61.59v-31.8Z"/>
      <path class="cls-1" d="M348.54,708.95h35.59v173.92h60.58v30.04h-96.17v-203.95Z"/>
      <path class="cls-1" d="M459.61,708.95h54.77c44.93,0,63.86,16.41,63.86,64.62v74.72c0,47.71-18.93,64.62-63.86,64.62h-54.77v-203.95ZM514.89,885.14c19.69,0,27.01-7.57,27.01-31.05v-86.33c0-23.47-7.57-31.04-27.26-31.04h-19.43v148.42h19.69Z"/>
      <path class="cls-1" d="M657.26,881.1h13.13v-140.34h-13.13v-31.81h61.59v31.81h-12.87v140.34h12.87v31.8h-61.59v-31.8Z"/>
      <path class="cls-1" d="M736.39,708.95h32.56l52.75,125.7v-125.7h32.56v203.95h-32.81l-52.5-125.7v125.7h-32.56v-203.95Z"/>
    </g>
    <g>
      <path class="cls-1" d="M.22,968.2h51.8v16.27H19.5v30.89h30.61v16.13h-30.61v30.89h32.53v16.27H.22v-110.43Z"/>
      <path class="cls-1" d="M77.29,968.2h19.27v94.17h32.8v16.27h-52.07v-110.43Z"/>
      <path class="cls-1" d="M197.29,1046.38v-6.29h19.54v11.34c0,9.57,4.1,12.85,13.12,12.85,8.2,0,11.61-3.01,11.61-10.93v-4.78c0-8.61-3.41-12.03-10.8-15.58l-14.08-8.06c-11.21-6.56-18.45-14.49-18.45-29.25,0-18.18,10.39-28.84,30.89-28.84s31.03,10.25,31.03,29.11v6.84h-19.54v-8.61c0-8.88-3.69-11.62-11.62-11.62-7.52,0-11.07,2.74-11.07,9.98v3.28c0,7.52,3.69,11.07,9.98,14.22l14.08,7.93c11.62,6.56,19.27,13.53,19.27,31.16,0,20.64-9.84,30.89-31.57,30.89s-32.39-11.48-32.39-33.62Z"/>
      <path class="cls-1" d="M302.41,968.2h26.51l21.05,110.43h-19.82l-3-19.13h-23.1l-3.01,19.13h-19.68l21.05-110.43ZM324.69,1043.23l-8.61-54.67-.41-2.19-.55,2.19-8.61,54.67h18.18Z"/>
      <path class="cls-1" d="M373.66,968.2h19.27v94.17h32.8v16.27h-52.07v-110.43Z"/>
      <path class="cls-1" d="M437.99,968.2h19.68l14.08,90.07.55,2.33.55-2.33,13.94-90.07h19.82l-21.05,110.43h-26.51l-21.05-110.43Z"/>
      <path class="cls-1" d="M538.64,968.2h26.52l21.05,110.43h-19.82l-3-19.13h-23.1l-3.01,19.13h-19.68l21.04-110.43ZM560.92,1043.23l-8.61-54.67-.41-2.19-.55,2.19-8.61,54.67h18.18Z"/>
      <path class="cls-1" d="M609.89,968.2h29.66c24.33,0,34.58,8.89,34.58,34.99v40.46c0,25.83-10.25,34.99-34.58,34.99h-29.66v-110.43ZM639.82,1063.6c10.66,0,14.63-4.1,14.63-16.81v-46.74c0-12.71-4.1-16.81-14.76-16.81h-10.52v80.36h10.66Z"/>
      <path class="cls-1" d="M698.88,1042.82v-38.81c0-23.37,11.21-37.17,33.35-37.17s33.21,13.8,33.21,37.17v38.81c0,23.37-11.21,37.18-33.21,37.18s-33.35-13.8-33.35-37.18ZM732.23,1064.01c9.29,0,13.53-5.88,13.53-16.13v-48.93c0-10.12-4.24-16.13-13.53-16.13s-13.67,5.88-13.67,16.13v48.93c0,10.25,4.24,16.13,13.67,16.13Z"/>
      <path class="cls-1" d="M834.73,1068.79v-22.42c0-9.02-5.19-11.61-11.21-11.61h-12.98v43.87h-19.27v-110.43h32.26c21.87,0,30.89,7.38,30.89,29.52v1.36c0,16.68-4.24,23.64-14.9,27.47,10.93,3.69,14.76,12.03,14.76,22.28v19.95c0,3.96.27,7.51,1.5,9.84h-19.54c-1.37-1.64-1.5-5.88-1.5-9.84ZM823.52,1019.59c8.47,0,11.21-4.37,11.21-12.3v-12.16c0-9.16-3.14-11.89-11.48-11.89h-12.71v36.35h12.98Z"/>
    </g>
  </g>
</svg>