<?xml version="1.0" encoding="UTF-8"?>
<svg id="Layer_1" data-name="Layer 1" xmlns="http://www.w3.org/2000/svg" viewBox="0 0 1080 1080">
  <defs>
    <style>
      .cls-1 {
        fill: #f9f5f4;
      }
    </style>
  </defs>
  <path class="cls-1" d="M540.03,0C241.78,0,.03,241.75.03,540.06s241.76,539.94,540,539.94,539.94-241.76,539.94-539.94S838.22,0,540.03,0ZM540.03,1030.06c-270.65,0-490.06-219.41-490.06-490S269.38,49.94,540.03,49.94s490.06,219.41,490.06,490.13-219.41,490-490.06,490Z"/>
  <g>
    <path class="cls-1" d="M166.91,355.96h112.52c67.88,0,94.75,35.08,94.75,91.57v9.11c0,41.46-17.31,62.42-44.64,73.35,30.06,10.93,50.11,35.99,50.11,81.54v9.11c0,69.24-26.42,103.41-97.03,103.41h-115.71v-368.09ZM272.6,506.29c22.32,0,35.99-6.83,35.99-36.44v-24.6c0-29.16-11.38-35.08-35.53-35.08h-41.91v96.12h41.46ZM274.88,669.83c30.06,0,38.72-8.65,38.72-39.63v-29.61c0-29.16-11.39-40.09-38.72-40.09h-43.74v109.33h43.74Z"/>
    <path class="cls-1" d="M396.48,666.64h23.69v-253.28h-23.69v-57.4h111.16v57.4h-23.24v253.28h23.24v57.4h-111.16v-57.4Z"/>
    <path class="cls-1" d="M530.12,355.96h172.66v54.21h-108.42v102.96h102.05v53.75h-102.05v102.96h108.42v54.21h-172.66v-368.09Z"/>
    <path class="cls-1" d="M710.71,616.53v-20.96h65.14v37.81c0,31.89,13.67,42.82,43.74,42.82,27.33,0,38.72-10.02,38.72-36.44v-15.94c0-28.7-11.39-40.09-35.99-51.93l-46.93-26.88c-37.35-21.87-61.5-48.29-61.5-97.49,0-60.59,34.62-96.12,102.96-96.12s103.41,34.17,103.41,97.03v22.78h-65.14v-28.7c0-29.61-12.3-38.72-38.72-38.72-25.06,0-36.9,9.11-36.9,33.25v10.94c0,25.06,12.29,36.9,33.25,47.37l46.92,26.43c38.72,21.86,64.23,45.09,64.23,103.86,0,68.79-32.8,102.95-105.23,102.95s-107.97-38.26-107.97-112.06Z"/>
  </g>
</svg>