<svg xmlns="http://www.w3.org/2000/svg" viewBox="0 0 512 512">
  <defs>
    <linearGradient id="bg" x1="0" y1="0" x2="1" y2="1">
      <stop offset="0%" stop-color="#4F46E5"/>
      <stop offset="100%" stop-color="#3730A3"/>
    </linearGradient>
  </defs>
  <circle cx="256" cy="256" r="250" fill="url(#bg)"/>
  <line x1="155" y1="375" x2="155" y2="137" stroke="#ffffff" stroke-width="18" stroke-linecap="round"/>
  <line x1="155" y1="137" x2="357" y2="375" stroke="#ffffff" stroke-width="18" stroke-linecap="round"/>
  <line x1="357" y1="375" x2="357" y2="137" stroke="#ffffff" stroke-width="18" stroke-linecap="round"/>
  <line x1="155" y1="256" x2="90" y2="196" stroke="#ffffff" stroke-width="5" stroke-linecap="round" opacity="0.3"/>
  <line x1="357" y1="256" x2="422" y2="196" stroke="#ffffff" stroke-width="5" stroke-linecap="round" opacity="0.3"/>
  <line x1="256" y1="256" x2="256" y2="176" stroke="#ffffff" stroke-width="5" stroke-linecap="round" opacity="0.3"/>
  <line x1="155" y1="375" x2="105" y2="420" stroke="#ffffff" stroke-width="5" stroke-linecap="round" opacity="0.3"/>
  <line x1="357" y1="137" x2="407" y2="92" stroke="#ffffff" stroke-width="5" stroke-linecap="round" opacity="0.3"/>
  <circle cx="155" cy="375" r="24" fill="#ffffff"/>
  <circle cx="155" cy="137" r="24" fill="#ffffff"/>
  <circle cx="357" cy="375" r="24" fill="#ffffff"/>
  <circle cx="357" cy="137" r="24" fill="#ffffff"/>
  <circle cx="256" cy="256" r="18" fill="#ffffff"/>
  <circle cx="90" cy="196" r="11" fill="#ffffff" opacity="0.45"/>
  <circle cx="422" cy="196" r="11" fill="#ffffff" opacity="0.45"/>
  <circle cx="256" cy="176" r="11" fill="#ffffff" opacity="0.45"/>
  <circle cx="105" cy="420" r="11" fill="#ffffff" opacity="0.45"/>
  <circle cx="407" cy="92" r="11" fill="#ffffff" opacity="0.45"/>
</svg>
