<svg xmlns="http://www.w3.org/2000/svg" viewBox="0 0 512 512">
  <defs>
    <linearGradient id="ng" x1="0" y1="0" x2="0" y2="1">
      <stop offset="0%" stop-color="#818cf8"/>
      <stop offset="100%" stop-color="#4F46E5"/>
    </linearGradient>
  </defs>
  <circle cx="256" cy="256" r="250" fill="#ffffff"/>
  <circle cx="256" cy="256" r="250" fill="none" stroke="#e5e7eb" stroke-width="2"/>
  <line x1="155" y1="375" x2="155" y2="137" stroke="#4F46E5" stroke-width="18" stroke-linecap="round"/>
  <line x1="155" y1="137" x2="357" y2="375" stroke="#4F46E5" stroke-width="18" stroke-linecap="round"/>
  <line x1="357" y1="375" x2="357" y2="137" stroke="#4F46E5" stroke-width="18" stroke-linecap="round"/>
  <line x1="155" y1="256" x2="90" y2="196" stroke="#4F46E5" stroke-width="6" stroke-linecap="round" opacity="0.35"/>
  <line x1="357" y1="256" x2="422" y2="196" stroke="#4F46E5" stroke-width="6" stroke-linecap="round" opacity="0.35"/>
  <line x1="256" y1="256" x2="256" y2="176" stroke="#4F46E5" stroke-width="6" stroke-linecap="round" opacity="0.35"/>
  <line x1="155" y1="375" x2="105" y2="420" stroke="#4F46E5" stroke-width="6" stroke-linecap="round" opacity="0.35"/>
  <line x1="357" y1="137" x2="407" y2="92" stroke="#4F46E5" stroke-width="6" stroke-linecap="round" opacity="0.35"/>
  <circle cx="155" cy="375" r="24" fill="url(#ng)"/>
  <circle cx="155" cy="137" r="24" fill="url(#ng)"/>
  <circle cx="357" cy="375" r="24" fill="url(#ng)"/>
  <circle cx="357" cy="137" r="24" fill="url(#ng)"/>
  <circle cx="256" cy="256" r="18" fill="url(#ng)"/>
  <circle cx="90" cy="196" r="12" fill="#818cf8" opacity="0.6"/>
  <circle cx="422" cy="196" r="12" fill="#818cf8" opacity="0.6"/>
  <circle cx="256" cy="176" r="12" fill="#818cf8" opacity="0.6"/>
  <circle cx="105" cy="420" r="12" fill="#818cf8" opacity="0.6"/>
  <circle cx="407" cy="92" r="12" fill="#818cf8" opacity="0.6"/>
</svg>
